<svg id="Layer_1" data-name="Layer 1" xmlns="http://www.w3.org/2000/svg" viewBox="0 0 60.93 72.84"><defs><style>.cls-1{fill:#c41230;}.cls-2{fill:#231f20;}.cls-3{fill:#fff;}.cls-4,.cls-5,.cls-6{fill:none;stroke:#231f20;}.cls-4{stroke-width:1.07px;}.cls-5{stroke-width:0.22px;}.cls-6{stroke-width:0.22px;}</style></defs><title>HMS_Logo_1 (1)</title><path class="cls-1" d="M30,.46H.23L.17,24.31c0,29.22,29.31,47.84,29.6,48l.1.06a1,1,0,0,0,.26-.13c5-3.26,29.82-20.88,29.82-47.81V.51C59.89.45,30,.46,30,.46ZM59.78,21.58H.77V18.15h59v3.44Z"/><path class="cls-2" d="M10.29,3.44c2-.85,4.19-.24,6.37-.36.56.12,1.41-.28,1.77.32,0,.64,0,1.25,0,1.89.2.44.85.08,1.21.32.2.12.44.24.48.48A1,1,0,0,1,20,7c-.4.44-.93.28-1.45.4l-.16.24a23.31,23.31,0,0,0,0,3.34c0,.24-.12.57.16.73a2.18,2.18,0,0,1,1.53.36,1.32,1.32,0,0,1,.08,1c-.24,1.21-2.09-.16-1.89,1.25A5,5,0,0,1,18.23,16c-2.18,0-4.39-.16-6.45,0a2.32,2.32,0,0,1-1.37.56A3,3,0,0,1,9.29,16c-2-.08-3.91-.08-5.8-.12-.6-.52-.16-1.37-.36-2.14-.32-.36-.81-.08-1.17-.28-.28,0-.36-.32-.52-.52a1.27,1.27,0,0,1,.32-1.09,2.27,2.27,0,0,1,1.17-.24l.2-.2a33.3,33.3,0,0,0-.08-4c-.2-.28-.56,0-.8-.24s-.73-.2-.85-.61-.16-.64.16-.93c.44-.48,1.21.08,1.61-.4l.16-1.93C3.65,2.72,4.41,3,5,3A14.41,14.41,0,0,1,8.2,3a6.09,6.09,0,0,1,2.09.44Z"/><path class="cls-3" d="M13,24.34l-.07.37c0,.23-.19.39-.43.35l-.84-.15a1.58,1.58,0,0,0-.92-.07,2.69,2.69,0,0,0-.47.43l.14.06a1,1,0,0,1,.74.72,1.7,1.7,0,0,0,.41.92l.15.21a.45.45,0,0,1,.1.25.31.31,0,0,1-.08.2l-.4.45-.23.24-.29.73c.09.16.19.31.29.33a2,2,0,0,1,1,0l.55.07h.11l.22,0a1,1,0,0,1,.86.14l.27.58a1.74,1.74,0,0,1,.09.49,3.14,3.14,0,0,1-.07.6l-.05.32a.6.6,0,0,1-.07.21,5.29,5.29,0,0,1-2.08,1.78l.06,0a.2.2,0,0,0,0,.1s0,0,0,0,.43.06.66,0l.23,0a3.52,3.52,0,0,0,1.07-.27L15,33.1a.36.36,0,0,1,.43.24,1.93,1.93,0,0,0,.7.86s0,0,.21-.19a1.07,1.07,0,0,1,1.15-.29l.11.06a1.8,1.8,0,0,1,.59,1,1.34,1.34,0,0,0,.27.6.44.44,0,0,1,.12.25.83.83,0,0,1,0,.12.71.71,0,0,1-.5.65l-.07,0a.5.5,0,0,1-.11.06l-.94.16a2.13,2.13,0,0,0-.8.18s0,.08.11.11a5.11,5.11,0,0,0,1.58.41l.32.05.73,0,1.18,0a.35.35,0,0,1,.32.22.44.44,0,0,1-.07.43l-.19.31a.46.46,0,0,1-.13.13l-1.91,1.29c-.08,0-1.13.41-1.13.41l-1.47.58-.1,0a2.08,2.08,0,0,1-1.92-.63,1.5,1.5,0,0,0-1-.48,1.13,1.13,0,0,0-.84.32.57.57,0,0,0-.12.39,1.25,1.25,0,0,0,0,.15l.09,0a.75.75,0,0,1,.59.73,3.88,3.88,0,0,1-.57,1.7,3.41,3.41,0,0,0-.48,1.33.71.71,0,0,0,0,.09c0,.1,0,.19.08.21l.06,0a.23.23,0,0,0,.15,0l.11-.18a1,1,0,0,1,.73-.6h.13c.76.09,1.19,0,1.46-.29a.44.44,0,0,1,.25-.13.83.83,0,0,1,.67.2.84.84,0,0,1,.31.62l0,.2c.46-.08.79-.51,1.16-1.15l.15-.25a.54.54,0,0,1,.3-.2l.31-.09a1.46,1.46,0,0,1,1.32,0,.44.44,0,0,1,.19.27,1.47,1.47,0,0,1,0,.33,2.28,2.28,0,0,1-.32,1l-.14.35A3.52,3.52,0,0,0,20,43.32l.32-.41a1,1,0,0,1,.92-.7l.12,0c.25.08.37,0,.72-.5l.58-.65c.08-.09.13-.08.25-.08h.23c.12,0,.22,0,.3.07a.3.3,0,0,1,.12.25v.59l.58-.22.81-.5a.49.49,0,0,1,.36,0l3,.77a1,1,0,0,1,.72,1,2.6,2.6,0,0,1,0,.35,2.15,2.15,0,0,0,0,.27.23.23,0,0,0,.05.17.44.44,0,0,1,.13.31.44.44,0,0,1,0,.17c-.12.28-.43.62-1.22.62l-1.5.08c-1.24,0-2.41,0-3.26.85l-.81.81a.43.43,0,0,1-.29.13,2.88,2.88,0,0,0-1.5.61A4.14,4.14,0,0,1,19,48a2.47,2.47,0,0,1-1.32.23,1.59,1.59,0,0,0-.71.06,3.48,3.48,0,0,0,1.76.86,3.7,3.7,0,0,0,.37.06,1.08,1.08,0,0,1,1,.51.45.45,0,0,1,0,.15c0,.4.11.56.27.62l.07,0a.76.76,0,0,1,1,0l.7.69.78.8c.13.14.11.28,0,.45a1.23,1.23,0,0,1-1.44.46l-.34,0s-.44,0-.44,0a2,2,0,0,1-2.11-.46l.08.07L18.09,52a2.39,2.39,0,0,0-1.48-.81c-.61.17-.88.36-.94.68v0l.15.16.26.28a.34.34,0,0,1,.09.25.63.63,0,0,1,0,.07.41.41,0,0,1-.21.28c-.5.33-1.05.84-1.05,1.43a1,1,0,0,0,0,.24l0,.09.19-.05a1,1,0,0,1,1,0,.39.39,0,0,1,.22.32l0,.46c0,.51.08.74.25.86l.24-.1a1.24,1.24,0,0,1,1.45,0c.1,0,.26,0,.61-.23l.56-.27a.21.21,0,0,1,.13,0c1,0,1.47.91,1.75,1.51h0l0,0c.46.36.85.62,1.19.52a.45.45,0,0,0,0-.14,2.24,2.24,0,0,0,0-.36,2.62,2.62,0,0,1-.05-.47,1,1,0,0,1,.66-1c.07,0,1-.09,1-.09l.62,0H25c.91.08,1.63.1,1.94-.54l.75-1.29.14-.74a.43.43,0,0,1,.3-.33,1.43,1.43,0,0,1,.93.11l.22.07A5.45,5.45,0,0,1,29,51.33a5.83,5.83,0,0,1,.06-.81A3.82,3.82,0,0,1,30,48.76a.44.44,0,0,1,.47-.1l.2.08a.4.4,0,0,1,.26.3l.19,1a6.7,6.7,0,0,0,.48,1.78.27.27,0,0,1,0,.23l-.36,1.44L31,54.61A3.73,3.73,0,0,1,29,57s0,.09,0,.14a1.72,1.72,0,0,0,.39,0h.41a4.73,4.73,0,0,0,2.89-1.49.43.43,0,0,1,.43-.13c.22.06.39,0,.68-.19a1.36,1.36,0,0,1,1.49-.12,1.42,1.42,0,0,0,1,.12c.59,0,1.56-.13,1.83,1,0,0,0,.15,0,.18l0,.53c.06.54.19,1.55-.88,1.84-.09,0-.09,0-.18,0l-1.11-.41c-.86-.42-1.26-.54-1.69,0-.11.11-.23.26-.17.38s.52.91,0,1.38a.48.48,0,0,0,.09-.11l-.06.1c-.28.47-.47.83-.34,1.15,0,0,.06.09.44,0a1.74,1.74,0,0,1,1.3.14l.54.16a1.13,1.13,0,0,1,.23.09l.17.14a2.3,2.3,0,0,0,1.06.56l0-.08.24-.47c.06-.06.73-.39.73-.39.45-.16.49-.21.49-.38a2.74,2.74,0,0,1,1.32-1.78.65.65,0,0,1,.26-.06,2.56,2.56,0,0,0,.95-.38l0-.05-.18-.19a.72.72,0,0,1-.15-.25,1.39,1.39,0,0,1,0-.3,2.36,2.36,0,0,1,.49-1.26,1.61,1.61,0,0,0,.35-.77.65.65,0,0,0-.15-.39.24.24,0,0,1-.06-.13l-.13-.71a1.47,1.47,0,0,0-.42-1.09l-.77-.4-.83-.4a.36.36,0,0,1-.2-.37c0-.38.24-.6.72-.66l.11,0a2.06,2.06,0,0,1,1.36.16c.36.14.49.14.59.09a2.1,2.1,0,0,0-.63-.91,4.75,4.75,0,0,0-1.7-.64,4,4,0,0,1-2.61-1.39.44.44,0,0,1-.08-.25.43.43,0,0,1,.13-.31l.12-.12a.43.43,0,0,1,.4-.12,3.64,3.64,0,0,0,3.16-.68,4.38,4.38,0,0,1,2-1.67,2.94,2.94,0,0,0,.79-2.48,2.27,2.27,0,0,1,.67-1.44l.85-.41a1.16,1.16,0,0,0,.43-.18A3.06,3.06,0,0,0,44,41.21a.42.42,0,0,1-.25-.05.64.64,0,0,1-.35-.48.75.75,0,0,1,0-.08.94.94,0,0,1,.35-.64l.07-.07a.62.62,0,0,1,.11-.1l.94-.54c1.23-.65,2-1.13,2-2.14v0l0-.1a1.66,1.66,0,0,0-.45.26l-.65.44a6.74,6.74,0,0,1-1.94.63,5.57,5.57,0,0,0-1.79.59.44.44,0,0,1-.23.06.57.57,0,0,1-.54-.35.65.65,0,0,1,0-.25.78.78,0,0,1,.21-.53,2.44,2.44,0,0,1,.82-.63c.35-.2.57-.33.68-.59l.12-.34A2.12,2.12,0,0,1,44,34.81l.59-.31a1.31,1.31,0,0,0,.24-.15s0,0-.09-.05a2.76,2.76,0,0,0-2.55,1,.42.42,0,0,1-.13.09l-.39.16a5.2,5.2,0,0,0-1.84,1.06.44.44,0,0,1-.18.11.68.68,0,0,1-.61-.1.67.67,0,0,1-.28-.55c-.16-1.61,1.12-2.77,2.15-3.71l.25-.23a1.44,1.44,0,0,1,.19-.1L42,31.7a1.86,1.86,0,0,1,1.88-.35,2,2,0,0,0,1.59.37,1.89,1.89,0,0,0,.8-.76,3.3,3.3,0,0,1,.94-1,1.61,1.61,0,0,1,1.1,0,1.3,1.3,0,0,0,.41.09l.06-.1a.63.63,0,0,0,0-.13,1.73,1.73,0,0,0-.51-1l-.37-.5a.35.35,0,0,1-.07-.21.5.5,0,0,1,0-.17,2.61,2.61,0,0,0,.18-1,2.7,2.7,0,0,0-.92-2,2,2,0,0,0-1-.25l.13.21.38.81c0,.1,0,.19,0,.29,0,1.78-1.54,2.55-2.79,3.18l-1.08.59c-2.52,1.26-5.84,3.3-6,6.62a6.92,6.92,0,0,0,2.06,4.69l.07.08.46.73a4.94,4.94,0,0,1,1.09,2.68,2.91,2.91,0,0,1-.11.78,2,2,0,0,1-2,1c-2.48-.17-3.83-2.67-4.82-4.5l-.15-.28-.2-.44a5.62,5.62,0,0,1-.62-1.91.43.43,0,0,1,.12-.35.66.66,0,0,1,.9-.05c.05,0,.5.75.5.75a1.87,1.87,0,0,0,.13.26,1.24,1.24,0,0,0,.11-.37A4.09,4.09,0,0,0,34,38.27l-.05-.15a3.85,3.85,0,0,0-.68-.71,3.58,3.58,0,0,1-1-1.17.43.43,0,0,1,0-.15s0,0,0-.07a.82.82,0,0,1,.73-.79l.12,0a7.36,7.36,0,0,1-.29-2,8.08,8.08,0,0,1,.06-1s0,0,0,0,0,0,0,0l0,0,.56-.6c.17-.11.19-.13.19-.17a8.49,8.49,0,0,1-.25-2.16c0-.29,0-.58,0-.86,0-.06.21-.72.21-.72a2.26,2.26,0,0,0,.19-.72.62.62,0,0,0,0-.2,1.1,1.1,0,0,1-.48-.89l0-.22h0a.24.24,0,0,0,.12,0,6.13,6.13,0,0,1-2.67-.76l-.91-.4a1.19,1.19,0,0,0-.74.15l-.48.17-.51.09a2.17,2.17,0,0,0-1.3.48c-.17.21-.17.45-.16.91v.28a.43.43,0,0,1,0,.14.64.64,0,0,1-.37.42.81.81,0,0,1-.69-.11l-.06,0a1.7,1.7,0,0,1-.87-2,.3.3,0,0,0-.13-.29,1.06,1.06,0,0,0-.86-.12c-.24.09-.37.34-.55.75l-.11.23s0,.06,0,.1a1.49,1.49,0,0,0,.18.73,6.1,6.1,0,0,0,1.37.92l1.26.81a.31.31,0,0,1,.14.2,1.21,1.21,0,0,1,.06.4,1.89,1.89,0,0,1-.45,1.11l0,0a.84.84,0,0,1,.42.67.8.8,0,0,1,0,.16.44.44,0,0,1-.32.34,2.35,2.35,0,0,1-2.09-.44l-.38-.5c-.12-.2-.18-.28-.26-.31a1.44,1.44,0,0,0-.17.33l-.18.37c0-.05,0,.31,0,.31a1.43,1.43,0,0,1-.4,1,.43.43,0,0,1-.33.11l-.35,0a16.09,16.09,0,0,1-4.65-2.54A9,9,0,0,1,15,27.28l-.39-.53a.43.43,0,0,1-.07-.13l-.15-.5c-.27-1-.51-1.61-1.2-1.82l-.2,0Zm1,5.72Zm-3.14-.62a1.19,1.19,0,0,1,.17,0,.45.45,0,0,0-.17,0Zm14.4.51c.07-.08.11-.1.11-.15h0l-.11.16ZM33,35.29s0,0,.06.09,0-.1,0-.14l0,.06ZM23.5,41.92h0a.1.1,0,0,1-.06,0l0,0Zm0,.08c0-.05,0-.07,0-.08h0V42ZM15,44.54h0ZM29.27,53a.49.49,0,0,0,0,.15c0-.05,0-.11,0-.16Zm.48,4.21h0Z"/><path class="cls-4" d="M.54,24.3c0-7,0-14.7,0-23.76H60s0,3.54,0,23.91c0,30.11-30,47.76-30,47.76S.54,53.67.54,24.3Z"/><path class="cls-2" d="M42,59h0c-.19-.16-.43-.48-.56-.59-.23-1.05,1.4-1.75.58-2.88-.19-.66,0-1.52-.7-2a16.26,16.26,0,0,0-1.63-.82c0-.27.35-.2.54-.27.86-.23,1.63.82,2.26,0,.08-.58-.47-1.09-.86-1.48-1.29-.89-3.23-.55-4.2-1.91l.12-.12a4.09,4.09,0,0,0,3.54-.78A4,4,0,0,1,43.1,46.5a3.35,3.35,0,0,0,1-2.84,1.84,1.84,0,0,1,.55-1.13c.47-.43,1.67-.27,1.44-1.17a3.79,3.79,0,0,0-2.14-.58c-.35-.19.08-.47.19-.62,1.25-.82,3.19-1.32,3.11-3.15-.12-.19-.08-.51-.39-.54-.55.08-.86.58-1.36.82-1.17.66-2.65.54-3.77,1.24-.23,0-.16-.31-.08-.39.43-.58,1.28-.62,1.6-1.36.23-.58.35-1.36,1-1.6.39-.31,1-.31,1.25-.78,0-.27-.35-.43-.58-.51a3.09,3.09,0,0,0-3,1.09,6.78,6.78,0,0,0-2.37,1.32.24.24,0,0,1-.31-.23c-.16-1.56,1.25-2.68,2.26-3.62.74-.2,1.36-1.09,2.22-.7a2.38,2.38,0,0,0,1.91.39c.86-.31,1-1.28,1.83-1.75.58-.19,1.4.66,1.75-.15.2-.86-.51-1.36-.89-2a3.14,3.14,0,0,0-.86-3.46,2.11,2.11,0,0,0-1.59-.31c-.43.55.39.9.43,1.44.2,2.22-2.22,2.72-3.66,3.66-2.73,1.36-6,3.46-6.23,7a7.34,7.34,0,0,0,2.18,5c.7,1.21,1.83,2.33,1.4,3.85-.27.62-1,.7-1.59.7-2.33-.16-3.62-2.76-4.59-4.55A7,7,0,0,1,33,39.37c.12-.12.23-.08.35,0,.43.39.39,1.32,1.13,1.21.58-.82.15-1.79-.16-2.61S33,36.85,32.63,36.07c0-.58.82-.23.86-.82a7.25,7.25,0,0,1-.23-3c.16-.43.78-.39.78-.93a9.54,9.54,0,0,1-.23-3c.12-.62.62-1.28.27-1.94-.7-.2-.12-1.05-.78-1.25-1.33,0-2.3-.7-3.43-1.13-.58-.16-1,.2-1.48.31-.74.15-1.52.15-2,.7-.35.43-.27.89-.27,1.48-.12.35-.43,0-.58,0A1.26,1.26,0,0,1,24.93,25a.71.71,0,0,0-.27-.74,1.49,1.49,0,0,0-1.28-.19c-.54.19-.7.82-.93,1.28a2,2,0,0,0,.23,1.17c.78.82,1.87,1.13,2.72,1.83a1.5,1.5,0,0,1-.47,1.32c0,.43.58.43.5.82a1.9,1.9,0,0,1-1.71-.35c-.31-.27-.39-.86-.89-.94s-.55.63-.74.94,0,.93-.35,1.21l-.35,0a16.07,16.07,0,0,1-4.44-2.45,11.91,11.91,0,0,1-2-2.37c-.31-1-.47-2.34-1.71-2.65-.27,0-.62.08-.66.39l-.08.39c-.62,0-1.25-.43-1.91-.2a2.5,2.5,0,0,0-.82.74c0,.7.82.43.93,1a2.49,2.49,0,0,0,.62,1.28c-.16.27-.47.43-.62.7l-.39,1c.16.31.35.7.74.74.54-.24,1,.15,1.59.08.35,0,.93-.27,1,.31a2.54,2.54,0,0,1,0,1.32,4.79,4.79,0,0,1-1.91,1.63.65.65,0,0,0-.16.74c.27.39.89.23,1.32.2.82,0,1.44-.51,2.22-.58a2.37,2.37,0,0,0,.9,1.05c.62.15.78-.7,1.4-.47.51.39.35,1.13.82,1.6,0,.27-.23.27-.39.39-.66.23-1.6,0-2.1.54a.68.68,0,0,0,.43.7,6.76,6.76,0,0,0,2,.51,14.91,14.91,0,0,1,1.87,0l-.19.31-1.91,1.28a25,25,0,0,0-2.57,1c-1.21.31-1.71-1.21-2.8-1.13a1.53,1.53,0,0,0-1.09.43,1.14,1.14,0,0,0-.23,1.05c.15.35.66.2.66.58,0,1.09-1,1.87-1.05,3a.65.65,0,0,0,.35.74.6.6,0,0,0,.66-.12c.23-.23.23-.58.62-.66a2,2,0,0,0,1.83-.43.44.44,0,0,1,.47.39c0,.27,0,.59.27.7,1,0,1.44-1,1.87-1.67.43-.08.89-.39,1.32-.12.16.66-.39,1.13-.51,1.75a.57.57,0,0,0,.43.35c1.17-.15,1.83-1.24,2.53-2.1.12-.24.23-.54.59-.54.89.27,1.13-.82,1.67-1.21h.23c.08.27-.12.47,0,.74.39.43.82,0,1.21-.12l.82-.51c1,.31,2,.54,3,.78.82.31,0,1.17.51,1.67-.12.27-.47.35-.82.35-1.71.23-3.69-.23-5.06,1l-.82.82c-1.28,0-1.94,1.13-3.11,1.32-.78.55-2-.23-2.49.66a3.14,3.14,0,0,0,2.22,1.32c.35.16.93,0,1.13.35,0,.39.12.86.58,1s.54-.39.86-.12c.43.58,1.05.86,1.4,1.4-.27.51-.94.19-1.4.19l-.08,0c-.7.08-1.59.43-2.14-.23-.74-.54-1.32-1.4-2.37-1.4-.58.15-1.21.39-1.32,1-.08.39.31.54.47.78-.7.47-1.44,1.2-1.21,2.14.08.2.16.43.43.43s.62-.31,1-.12c.08.59-.08,1.48.62,1.75.55-.08.93-.66,1.52-.24.58.27,1-.27,1.56-.43.82,0,1.13.78,1.4,1.36.51.39,1.21,1,1.9.62.47-.66-.43-1.52.47-1.95.54-.16,1,0,1.56-.08.85.08,1.91.16,2.37-.78l.78-1.33.16-.82c.51-.15,1.24.66,1.48-.12a5,5,0,0,1-.23-2.41,3.38,3.38,0,0,1,.82-1.52l.2.08a13.71,13.71,0,0,0,.7,2.84c-.08.9-.55,1.67-.66,2.57a3.27,3.27,0,0,1-1.75,2.1.61.61,0,0,0-.23.7c.23.43.82.2,1.24.27A5.19,5.19,0,0,0,32.94,56c.86.23,1.28-.82,2.06-.35.82.62,2.3-.47,2.61.86-.12.62.47,1.75-.54,2-1-.15-2.18-1.48-3.19-.31a.73.73,0,0,0-.24.85c.16.27.35.62.08.85-.27.47-.66,1.05-.43,1.64.19.35.58.35.93.27.58-.23,1.13.27,1.71.31a2.62,2.62,0,0,0,1.67.82c.27-.15.23-.51.43-.74.43-.35,1.32-.27,1.32-1.05a2.38,2.38,0,0,1,1.12-1.41A2.29,2.29,0,0,0,42,59Z"/><path class="cls-5" d="M42,59h0c-.19-.16-.43-.48-.56-.59-.24-1.05,1.4-1.75.58-2.88-.19-.66,0-1.52-.7-2a16.18,16.18,0,0,0-1.63-.82c0-.27.35-.2.55-.27.86-.23,1.63.82,2.26,0,.08-.58-.47-1.09-.86-1.48-1.28-.89-3.23-.55-4.2-1.91l.12-.12a4.09,4.09,0,0,0,3.54-.78A4,4,0,0,1,43.1,46.5a3.34,3.34,0,0,0,1-2.84,1.83,1.83,0,0,1,.55-1.13c.47-.43,1.67-.27,1.44-1.17a3.79,3.79,0,0,0-2.14-.58c-.35-.19.08-.47.2-.62,1.25-.82,3.19-1.32,3.11-3.15-.12-.19-.08-.51-.39-.54-.55.08-.86.58-1.36.82-1.17.66-2.64.55-3.77,1.24-.23,0-.16-.31-.08-.39.43-.58,1.28-.62,1.6-1.36.23-.58.35-1.36,1-1.6.39-.31,1-.31,1.24-.78,0-.27-.35-.43-.58-.51a3.09,3.09,0,0,0-3,1.09,6.77,6.77,0,0,0-2.37,1.33.25.25,0,0,1-.31-.24c-.16-1.56,1.25-2.68,2.26-3.62.74-.19,1.36-1.09,2.22-.7a2.38,2.38,0,0,0,1.91.39c.86-.31,1.05-1.28,1.83-1.75.58-.19,1.4.66,1.75-.15.2-.86-.51-1.36-.89-2a3.14,3.14,0,0,0-.86-3.46,2.11,2.11,0,0,0-1.59-.31c-.43.55.39.9.43,1.44.2,2.22-2.22,2.72-3.66,3.66-2.73,1.36-6,3.46-6.23,7a7.35,7.35,0,0,0,2.18,5c.7,1.21,1.83,2.33,1.4,3.85-.27.62-1,.7-1.59.7-2.33-.16-3.62-2.76-4.59-4.55A6.94,6.94,0,0,1,33,39.37c.12-.12.23-.08.35,0,.43.39.39,1.32,1.13,1.21.58-.82.16-1.79-.15-2.61S33,36.85,32.63,36.07c0-.58.82-.23.86-.82a7.23,7.23,0,0,1-.23-3c.16-.43.78-.39.78-.93a9.53,9.53,0,0,1-.23-3c.11-.62.62-1.28.27-1.94-.7-.19-.12-1.05-.78-1.25-1.32,0-2.3-.7-3.42-1.13-.58-.15-1,.2-1.48.31-.74.15-1.52.15-2,.7-.35.43-.27.89-.27,1.48-.12.35-.43,0-.58,0A1.26,1.26,0,0,1,24.93,25a.71.71,0,0,0-.27-.74,1.5,1.5,0,0,0-1.28-.19c-.54.19-.7.82-.93,1.28a2,2,0,0,0,.23,1.17c.78.82,1.87,1.13,2.72,1.83a1.5,1.5,0,0,1-.47,1.32c0,.43.58.43.51.82a1.91,1.91,0,0,1-1.71-.35c-.31-.27-.39-.86-.89-.93s-.55.62-.74.93,0,.93-.35,1.21l-.35,0a16,16,0,0,1-4.44-2.45,12,12,0,0,1-2-2.37c-.31-1-.47-2.33-1.71-2.64-.27,0-.62.08-.66.39l-.08.39c-.62,0-1.24-.43-1.91-.2a2.49,2.49,0,0,0-.82.74c0,.7.82.43.93,1a2.48,2.48,0,0,0,.62,1.28c-.16.27-.47.43-.62.7l-.39,1c.16.31.35.7.74.74.54-.24,1,.15,1.59.08.35,0,.93-.27,1,.31a2.54,2.54,0,0,1,0,1.32,4.8,4.8,0,0,1-1.91,1.64.65.65,0,0,0-.16.74c.27.39.89.23,1.32.2.82,0,1.44-.51,2.22-.58a2.38,2.38,0,0,0,.9,1.05c.62.15.78-.7,1.4-.47.51.39.35,1.13.82,1.6,0,.27-.23.27-.39.39-.66.23-1.6,0-2.1.54a.68.68,0,0,0,.43.7,6.76,6.76,0,0,0,2,.51,14.92,14.92,0,0,1,1.87,0l-.2.31-1.91,1.28a24.91,24.91,0,0,0-2.57,1c-1.21.31-1.71-1.21-2.8-1.13a1.53,1.53,0,0,0-1.09.43,1.14,1.14,0,0,0-.23,1.05c.15.35.66.2.66.58,0,1.09-1,1.87-1.05,3a.65.65,0,0,0,.35.74.6.6,0,0,0,.66-.12c.23-.23.23-.58.62-.66a2,2,0,0,0,1.83-.43.44.44,0,0,1,.47.39c0,.27,0,.59.27.7,1,0,1.44-1,1.87-1.67.43-.08.89-.39,1.32-.12.16.66-.39,1.13-.51,1.75a.57.57,0,0,0,.43.35c1.17-.15,1.83-1.24,2.53-2.1.12-.24.23-.54.59-.54.89.27,1.13-.82,1.67-1.21h.23c.08.27-.12.47,0,.74.39.43.82,0,1.21-.12l.82-.51c1,.31,2,.54,3,.78.82.31,0,1.17.51,1.67-.12.27-.47.35-.82.35-1.71.23-3.69-.23-5.06,1l-.82.82c-1.28,0-1.94,1.13-3.11,1.32-.78.55-2-.23-2.49.66a3.14,3.14,0,0,0,2.22,1.32c.35.16.93,0,1.13.35,0,.39.12.86.58,1s.54-.39.86-.12c.43.58,1.05.86,1.4,1.4-.27.51-.94.19-1.4.19l-.08,0c-.7.08-1.6.43-2.14-.23-.74-.55-1.32-1.4-2.37-1.4-.58.16-1.21.39-1.32,1.05-.08.39.31.54.47.78-.7.47-1.44,1.2-1.21,2.14.08.2.16.43.43.43s.62-.31,1-.12c.08.59-.08,1.48.62,1.76.55-.08.93-.66,1.52-.24.58.27,1.05-.27,1.56-.43.82,0,1.13.78,1.4,1.36.51.39,1.21,1,1.91.62.47-.66-.43-1.52.47-1.95.54-.16,1,0,1.56-.08.85.08,1.91.16,2.37-.78l.78-1.33.16-.82c.51-.16,1.24.66,1.48-.12a5.05,5.05,0,0,1-.23-2.41,3.39,3.39,0,0,1,.82-1.52l.2.08a13.74,13.74,0,0,0,.7,2.84c-.08.9-.55,1.67-.66,2.57a3.27,3.27,0,0,1-1.75,2.1.61.61,0,0,0-.23.7c.23.43.82.2,1.24.27A5.19,5.19,0,0,0,32.94,56c.86.23,1.28-.82,2.06-.35.82.62,2.3-.47,2.61.86-.12.62.47,1.75-.54,2-1-.16-2.18-1.48-3.19-.31a.74.74,0,0,0-.23.86c.16.27.35.62.08.85-.27.47-.66,1.05-.43,1.64.19.35.58.35.93.27.58-.23,1.13.27,1.71.31a2.62,2.62,0,0,0,1.67.82c.27-.15.23-.5.43-.74.43-.35,1.32-.27,1.32-1.05a2.37,2.37,0,0,1,1.12-1.41A2.3,2.3,0,0,0,42,59Z"/><path class="cls-3" d="M24.22,24.9a1.63,1.63,0,0,0,.23,1.4c.82.89,2.06,1.17,2.57,2.22l-.31,0a25.78,25.78,0,0,0-2.88-1.83,1.24,1.24,0,0,1-.58-1.21c.08-.35.19-.74.58-.82a.3.3,0,0,1,.39.27Z"/><path class="cls-3" d="M32.55,25.83c.15.23,0,.74.51.78a.25.25,0,0,1,.23.23A6.82,6.82,0,0,1,33.06,28c-.12.31-.54.43-.54.86,0,.23.35.35.39.58l0,1.56c-1,.31-.51,1.52-.58,2.14a10,10,0,0,0,0,1.52c-.23.12-.66.08-.78.43a3.87,3.87,0,0,0,.47,1.52c.35.51,1.09.62,1.13,1.28a3.91,3.91,0,0,1-1.44-.47,4.83,4.83,0,0,1-1.67-1.87.24.24,0,0,0-.39,0c-.08.47-.12,1.13-.55,1.44-.5-.31-.47-1.56-1.28-1.17-.27,1.67-1.4,3-2.37,4.4-.23.08-.27.43-.58.35a6.22,6.22,0,0,0,.39-4.28c-.12-.27-.39-.19-.58-.08s-.35.55-.7.43c-.27-.43.27-1.09-.35-1.36-.54.12-.86.58-1.32.82a8.12,8.12,0,0,1-4,1,1.11,1.11,0,0,1-.66-.2,5,5,0,0,1,1.28-.66c1.63-1,2.72-2.76,4-4.09-.12-.58-.62-1.28-.08-1.83.43,0,.58.47.93.58a2.3,2.3,0,0,0,1.95.23,1.28,1.28,0,0,0,1-1.13.39.39,0,0,0-.27-.43c-.15,0-.35,0-.43-.16a.51.51,0,0,1,.43-.5c.66,0,1.32,1.44,1.79.27.27-.93-.58-1.63-1.24-2.22a.69.69,0,0,1-.2-.66c.51-.31-.12-.74.27-1.09.66-.5,1.67-.2,2.37-.7,1.21,0,2.06.93,3.15,1.21Z"/><path class="cls-3" d="M14,25.48A.87.87,0,0,1,14,26c-.16.16-.35,0-.47-.08a.7.7,0,0,1-.27-.7c0-.82.74-.08.74.23Z"/><path class="cls-3" d="M13.48,26.65a8.54,8.54,0,0,1,2.57,2.45,14.72,14.72,0,0,0,5.49,3.15c.08.31-.16.59-.39.82-.66.7-1.21,1.52-1.91,2.14a.53.53,0,0,1-.43,0c-.7-.66-.62-2-1.83-2.06-.39,0-.7.47-1.09.19s.12-1-.47-1.17c-.66.27-1.21,1-2,.89.51-.86,1.4-1.79.93-2.92a1.76,1.76,0,0,0-.9-1.24c-.47,0-.74.51-1.21.27-.2-.43-1.05-.23-.7-.78s1.44-.54,1-1.32c-.31-.43-1.05-.2-1.13-.78.08-.35-.23-.82,0-1,.93-.08,1.52.86,2.06,1.44Z"/><path class="cls-3" d="M47.65,27.12c.12.62-.47,1-.31,1.6.16.31.66.39.62.74-1.48,0-1.75,2-3.23,1.95-.62-.12-1.09-.78-1.83-.47-1.91.89-4,2.22-4.47,4.48a2.7,2.7,0,0,0,.47,2.53.59.59,0,0,0,.51,0c.39-.7.7-1.63,1.63-1.83a8.32,8.32,0,0,0,1.6-.7c.08,0,.19-.08.23.08-.23.66-.54,1.48-1.28,1.71a2.79,2.79,0,0,0-1.13,1.71A1.32,1.32,0,0,0,40.65,40c.27.23.58-.08.82-.23,1-1.25,2.53-1.4,4-1.48.08.12-.12.35-.27.39a4.67,4.67,0,0,0-2.92,2.76.6.6,0,0,0,.31.43c.62-.08,1.13-.47,1.79-.39.15.43-.51.43-.66.78-1.21,1.05,0,3.42-2,3.77-.58.16-.51.86-.89,1.21a3,3,0,0,1-2.84,1c-.78.08-1.44-1-2.1-.31.08.78.7,1.21,1.09,1.87,1,.93,2.33,1,3.58,1.4a.55.55,0,0,1,.35.31c0,.27-.35.2-.58.16a4.76,4.76,0,0,1-2.45-.08c-.12,0-.23.12-.27.23.12.86,1.09,1.17,1.67,1.64.58.27,1.36.19,1.63.9v.89a2.06,2.06,0,0,1,.31,1.52A2,2,0,0,0,40.72,59c-.23.19-.58,0-.82.16-.27.58-1,.66-1.21,1.24a1,1,0,0,1-.78,1c-.39,0-.66.16-1,.08-.23-.27.12-.7-.31-.86s-.74.74-1.32.43c-.27-.16-.54-.27-.66-.54s.31-.47.55-.62c1.28-.16,3-.39,3.42-1.79.08-.66-.23-1.21-.12-1.79A1.89,1.89,0,0,0,36.79,55c-.7-.19-1.48.08-2-.43-.2-.16-.43-.31-.66-.19s-.27.31-.51.19-.47-.47-.7-.19a3.5,3.5,0,0,1-2.3,2.14c-.15-.27.16-.58.27-.89a10,10,0,0,0,.78-2.37,1.64,1.64,0,0,0,.43-1.56,7.29,7.29,0,0,1-.62-4.28A5,5,0,0,0,30,42.72c-.74-.43-1.36-1.17-2.26-1.32-.58-.2-1.44,0-1.75-.54.08-.62.74-1,1-1.52l1-1.56c.43-.08.31.54.74.51.82,0,.78-1.36,1.63-.93.39.55,1,.74,1.4,1.2a14.67,14.67,0,0,0,2.88,6.15c1.17,1.52,3,2.65,4.82,2.1.51-.43,1.21-.89,1.32-1.63.51-3.54-4-5.29-3.66-8.8.31-3.31,3.7-5.1,6.38-6.38,1.48-.78,3.35-1.83,3.46-3.74a.78.78,0,0,1,.08-.5c.54.2.51.86.54,1.36Z"/><path class="cls-3" d="M23.49,37.62c.43.08.93-.47,1.13.12a6.42,6.42,0,0,1-.51,2.45c-.39.39-1,.08-1.4.27-.59.16-.7,1.6-1.44.66-.31-.12-.51.2-.66.35a6.74,6.74,0,0,1-1.17,2.06c-.12.08-.31.16-.43,0-.08-.51.31-1.4-.43-1.56a1.74,1.74,0,0,0-.86.27c-.58,0-1.36,0-1.67.55-.08.27-.12.66-.47.7-.35-.16-.82-.27-1-.74-.16-.12-.39-.27-.58-.08s-.43.85-.94.85A2.31,2.31,0,0,1,12,43.3c.08-.9,1.09-1,1.71-1.36,1.24-.27,2.18-1.05,3.42-1.29a15.3,15.3,0,0,0,5-3.66,2.38,2.38,0,0,1,.7-.19c.16.31.16.74.59.82Z"/><path class="cls-3" d="M14,41.2a1.46,1.46,0,0,1-1.32.2c-.23-.23-.12-.66-.16-1,.12-.27.47-.19.66-.08.27.27.82.43.82.89Z"/><path class="cls-3" d="M30.64,46.22a3,3,0,0,1-.39,1.52,5.1,5.1,0,0,0-1.52,2.37c0,.66-.08,1.29-.12,1.91-.2.16-.35-.08-.47-.19-.31-.47-.23-1.52-1-1.36a1.79,1.79,0,0,0-.59,1.79c.35.51,1.05.9.66,1.56-.58.31-.43,1.21-1.21,1.28-1.17.16-2.37-.35-3.31.47A2.67,2.67,0,0,0,22,56.61c-.55.08-.39-.66-.66-1s-.58-.12-.86-.27c-.43-.16-.85-.63-1.36-.27s-.93.78-1.44.35l-.7-.19c0-.24.23-.55,0-.78l-1.36-.62c-.08-.12,0-.27.12-.35,1.13-.74,2.41.12,3.73-.12a6.6,6.6,0,0,1,2.61-.12c.51,0,1.13.16,1.44-.27a.89.89,0,0,0,.08-1c-.39-.85-1.64-1-1.79-2.06a.85.85,0,0,0-.43-.47c-.31-.11-.51.23-.82.08-.08-.27-.16-.62-.47-.74-.58,0-1.28.27-1.79-.12.08-.31.47-.24.7-.39a9.93,9.93,0,0,0,2.26-1.05l1.13-.16c1.13-1.83,3.42-1.71,5.37-1.79l1.91-.58c.66.16.82.93.93,1.48Z"/><path class="cls-3" d="M18.23,52.53c-.35.23-.82.08-1.21,0a1,1,0,0,1-.27-.86c.58-.27,1.21.31,1.48.82Z"/><path class="cls-3" d="M35.62,58.83c0,.19-.23.16-.31.16s-.15-.08-.23-.16c0-.35.47-.16.54,0Z"/><path class="cls-2" d="M30.57,26.45a.43.43,0,0,1-.39.55,1.44,1.44,0,0,1-1.25-.35c-.35-.27-.16-.74-.08-1.09a.48.48,0,0,1,.62-.08,4.34,4.34,0,0,1,1.09,1Z"/><path class="cls-2" d="M32.79,27.12a1.41,1.41,0,0,1-.35.86.27.27,0,0,1-.43-.16.93.93,0,0,1,.27-.86c.15-.12.47-.08.51.16Z"/><path class="cls-2" d="M30.29,29.92l0,.66c-.66.74-.66,1.87-1.67,2.3a.45.45,0,0,1-.54-.39,3.4,3.4,0,0,1,0-1.4c.43-.23.55.62.9.24a6,6,0,0,1,1-1.6.34.34,0,0,1,.35.2Z"/><polygon class="cls-2" points="0.56 17.81 59.97 17.81 59.97 21.9 0.56 21.9 0.56 17.81 0.56 17.81"/><polygon class="cls-5" points="0.56 17.81 59.97 17.81 59.97 21.9 0.56 21.9 0.56 17.81 0.56 17.81"/><polygon class="cls-3" points="44.74 18.54 51.48 18.54 51.48 21.17 44.74 21.17 44.74 18.54 44.74 18.54"/><polygon class="cls-3" points="30.06 18.54 36.81 18.54 36.81 21.17 30.06 21.17 30.06 18.54 30.06 18.54"/><polygon class="cls-3" points="15.29 18.54 22.03 18.54 22.03 21.17 15.29 21.17 15.29 18.54 15.29 18.54"/><polygon class="cls-3" points="1.27 18.54 7.41 18.54 7.41 21.17 1.27 21.17 1.27 18.54 1.27 18.54"/><path class="cls-2" d="M57.27,3.15c.48.6.16,1.45.28,2.18.52.44,1.65,0,1.77,1a1.09,1.09,0,0,1-.36.93c-.36.36-1,0-1.33.4-.12,1.21,0,2.54,0,3.91.36.24.85.2,1.25.4a1.3,1.3,0,0,1,.4.81.82.82,0,0,1-.56.68c-.32.16-.89,0-1,.44-.16.64,0,1.37-.08,2.05a3.53,3.53,0,0,1-1.45.2l-4.75,0c-.44.24-.92.68-1.53.44-1-.64-2.38-.44-3.55-.48l-3.54,0c-.64-.56-.16-1.53-.36-2.21-.24-.4-.89-.24-1.29-.44a.81.81,0,0,1-.4-.89.86.86,0,0,1,.77-.69c.28-.16.81.12.93-.32,0-1.25-.08-2.46,0-3.63-.08-.73-1-.28-1.45-.56a1,1,0,0,1-.32-1.09c.32-.68,1.13-.52,1.73-.73l.08-.2.08-2.1.2-.16,5.52.12A5.77,5.77,0,0,1,50,3.59c1.17-.89,2.9-.44,4.31-.69,1,.2,2,0,2.94.24Z"/><path class="cls-6" d="M57.27,3.15c.48.6.16,1.45.28,2.18.52.44,1.65,0,1.77,1a1.09,1.09,0,0,1-.36.93c-.36.36-1,0-1.33.4-.12,1.21,0,2.54,0,3.91.36.24.85.2,1.25.4a1.3,1.3,0,0,1,.4.81.82.82,0,0,1-.57.68c-.32.16-.89,0-1,.44-.16.65,0,1.37-.08,2.05a3.52,3.52,0,0,1-1.45.2l-4.75,0c-.44.24-.92.68-1.53.44-1-.65-2.38-.44-3.55-.48l-3.54,0c-.64-.56-.16-1.53-.36-2.21-.24-.4-.89-.24-1.29-.44a.81.81,0,0,1-.4-.89.86.86,0,0,1,.77-.69c.28-.16.81.12.93-.32,0-1.25-.08-2.46,0-3.62-.08-.73-1-.28-1.45-.56a1,1,0,0,1-.32-1.09c.32-.68,1.13-.52,1.73-.73l.08-.2.08-2.09.2-.16,5.52.12A5.75,5.75,0,0,1,50,3.59c1.17-.89,2.9-.44,4.31-.68,1,.2,2,0,2.94.24Z"/><path class="cls-2" d="M37.51,3c.24,0,.48.16.68.28.2.76,0,1.41.16,2.13.52.2,1.29,0,1.57.69a1.1,1.1,0,0,1-.08,1c-.4.52-1.33,0-1.61.64a24.08,24.08,0,0,0,0,3.83c.4.4,1.13.08,1.49.6a.92.92,0,0,1,.2.85c-.32.52-1,.52-1.57.65-.24.2,0,.56-.12.84-.2.52.28,1.17-.32,1.49-1.65.24-3.22-.08-4.92,0l-1.61,0c-.44.28-1,.72-1.53.4l-1-.44c-1.21,0-2.34,0-3.55,0-.81,0-1.93.32-2.46-.44a7.73,7.73,0,0,0,0-1.93c-.6-.2-1.61.08-1.93-.68a1.39,1.39,0,0,1,.08-.81c.44-.64,1.45-.08,1.89-.6l0-1.77a15,15,0,0,0,0-2.33c-.6-.24-1.65.08-1.77-.85a.81.81,0,0,1,.64-1c.4-.12,1,.08,1.17-.28l.12-1.89c.48-.81,1.65-.32,2.38-.44l3.67,0c.56.08,1.09.64,1.65.28,2.17-.89,4.63-.12,6.89-.36Z"/><path class="cls-6" d="M37.5,3c.24,0,.48.16.69.28.2.76,0,1.41.16,2.13.52.2,1.29,0,1.57.69a1.1,1.1,0,0,1-.08,1c-.4.52-1.33,0-1.61.64a24.2,24.2,0,0,0,0,3.83c.4.4,1.13.08,1.49.6a.92.92,0,0,1,.2.85c-.32.52-1,.52-1.57.65-.24.2,0,.56-.12.84-.2.52.28,1.17-.32,1.49-1.65.24-3.22-.08-4.91,0l-1.61,0c-.44.28-1,.72-1.53.4l-1-.44c-1.21,0-2.34,0-3.54,0-.81,0-1.93.32-2.46-.44a7.77,7.77,0,0,0,0-1.93c-.6-.2-1.61.08-1.93-.68a1.4,1.4,0,0,1,.08-.81c.44-.64,1.45-.08,1.89-.6l0-1.77a15,15,0,0,0,0-2.33c-.6-.24-1.65.08-1.77-.85a.81.81,0,0,1,.65-1c.4-.12,1,.08,1.17-.28l.12-1.89c.48-.81,1.65-.32,2.38-.44l3.66,0c.56.08,1.09.64,1.65.28,2.17-.89,4.63-.12,6.89-.36Zm-27.21.44c2-.85,4.19-.24,6.37-.36.56.12,1.41-.28,1.77.32,0,.64,0,1.25,0,1.89.2.44.85.08,1.21.32.2.12.44.24.48.48A1,1,0,0,1,20,7c-.4.44-.93.28-1.45.4l-.16.24a23.43,23.43,0,0,0,0,3.34c0,.24-.12.56.16.73a2.19,2.19,0,0,1,1.53.36,1.33,1.33,0,0,1,.08,1c-.24,1.21-2.09-.16-1.89,1.25A5,5,0,0,1,18.23,16c-2.18,0-4.39-.16-6.45,0a2.33,2.33,0,0,1-1.37.57A3,3,0,0,1,9.29,16c-2-.08-3.91-.08-5.8-.12-.6-.53-.16-1.37-.36-2.14-.32-.36-.81-.08-1.17-.28-.28,0-.36-.32-.52-.52a1.27,1.27,0,0,1,.32-1.09,2.25,2.25,0,0,1,1.17-.24l.2-.2a33.51,33.51,0,0,0-.08-4c-.2-.28-.56,0-.81-.24s-.73-.2-.85-.6-.16-.64.16-.93c.44-.48,1.21.08,1.61-.4l.16-1.93C3.65,2.72,4.41,3,5,3A14.35,14.35,0,0,1,8.2,3a6.07,6.07,0,0,1,2.09.44Z"/><path class="cls-3" d="M10,3.95l.16.36c.08,2.7.08,5.44.08,8.26l-.08,1c-.69,0-1.37-.32-2.14-.24a14.22,14.22,0,0,1-2.3-.12c-.4-.93-.12-1.85-.2-2.86,0-2,.08-4.47.08-6.65,0-.16.2-.24.32-.28,1.41.12,2.94-.24,4.07.48Z"/><path class="cls-3" d="M4.65,3.7C4.29,4,3.81,4.51,4,5c.16,3.38,0,6.4.16,9.59l.28.32A27.5,27.5,0,0,1,9.25,15c.08,0,.08.16,0,.24A3.68,3.68,0,0,1,8,15.35l-4.11-.08c-.28-.24-.16-.81-.16-1.13s.12-.89-.32-1.13-1.13,0-1.49-.4c.28-.81,1.57-.16,1.81-1,.12-1.49-.12-3,0-4.39-.16-.8-1-.56-1.61-.68a.39.39,0,0,1-.16-.36c.48-.48,1.45.08,1.81-.6a14.71,14.71,0,0,0,.12-1.85.89.89,0,0,1,.85-.12V3.7Z"/><path class="cls-3" d="M16,3.74c0,3.26,0,6.37,0,9.55-1.61.16-3.42-.12-5,.32-.36-.32-.08-.85-.16-1.29-.08-1,0-2.22,0-3.3,0-1.57-.08-3.34,0-4.87a1.41,1.41,0,0,1,1.33-.64l3.78,0,.12.2Z"/><path class="cls-3" d="M17.87,3.7c.12.64-.16,1.49.24,2.14.4.24,1,.12,1.41.2a.49.49,0,0,1,0,.57c-.44.44-1.37-.12-1.61.6,0,1.57-.08,3.1,0,4.71l.24.2c.52.08,1.17-.12,1.53.28,0,.24,0,.48-.24.56-.52.12-1.29-.16-1.57.4a15.49,15.49,0,0,1-.12,1.93l-.28.12-5.68-.08c-.12-.08,0-.16,0-.24l.56-.2,4.59,0c.48-.12.48-.72.52-1.09,0-2.26,0-4.23,0-6.41a16.76,16.76,0,0,0-.08-3.18c0-.24-.4-.4-.44-.68a.73.73,0,0,1,.85.12Z"/><path class="cls-3" d="M43.81,3.66c-.08.32-.48.56-.6.89,0,3.3,0,6.89.12,10.31l.28.16c1.77,0,3.67-.36,5.2.36.08,0,0,0,0,.08-1.94,0-3.87.12-5.76,0l-.16-.2a5.81,5.81,0,0,0-.24-2.05c-.45-.4-1.73.12-1.41-.8.48-.36,1.25.12,1.53-.48,0-1.69.08-3.18,0-4.75-.36-.48-1-.16-1.53-.28-.16-.16-.28-.4-.12-.6.52-.44,2.05.12,1.77-1.13.16-.52-.24-1.53.48-1.57.16,0,.36,0,.48.12Z"/><path class="cls-3" d="M56.94,3.74c.16.77-.16,1.53.28,2.22.48.12,1.25-.16,1.49.32,0,1-1.37.2-1.65,1,.12,1.53-.12,2.78,0,4.43a.29.29,0,0,0-.08.44c.44.36,1-.24,1.45.16.28.08.12.32.12.48-.36.52-1.25-.08-1.49.6l-.08,2-.28.12-5.36,0c-.08-.08,0-.12,0-.16l.64-.24h4.07c.2,0,.48-.2.48-.48,0-3.18-.08-6.48-.08-9.95l-.48-1c.2-.2.77-.24.89.08Z"/><path class="cls-3" d="M44.41,5v8.66c-.08.24-.36.36-.52.52l-.16-.12c0-.93,0-2,0-2.86v-.68c0-1.89,0-4,0-5.92.16-.16.32-.48.53-.56a4.08,4.08,0,0,1,.16,1Z"/><path class="cls-3" d="M56.18,4.55c-.08,2.26,0,4.39,0,6.52,0,1,0,1.89,0,2.82,0,.08,0,.12-.12.16-.68-.28-.44-1-.48-1.65a19.52,19.52,0,0,1,.08-2.66l-.12-.28,0-5.28c.16-.36.48.16.6.36Z"/><path class="cls-3" d="M17.06,4.43c0,3.26,0,6.49-.08,9.43-.08.16-.24,0-.36-.12a4.13,4.13,0,0,1,0-1.57c-.12-2.62,0-5.28,0-7.94.16-.2.4,0,.48.2Z"/><path class="cls-3" d="M50.26,8.54c-.08.2-.44.2-.64.12l-.2-.08c.12-.44,0-1,.36-1.29.36.24.32.81.48,1.25Z"/><path class="cls-3" d="M16.62,14.3c-.12.24-.48.12-.73.2H14.6a12.51,12.51,0,0,0-3,.08.39.39,0,0,1-.32-.36c.12-.36.56-.24.89-.36,1.25,0,2.74,0,3.95,0a1.11,1.11,0,0,1,.52.44Z"/><path class="cls-3" d="M9.85,14.14c0,.2-.16.4-.36.48a27,27,0,0,0-4.07-.28l0,0a.6.6,0,0,1,.56-.44,17.53,17.53,0,0,1,3.91.28Z"/><path class="cls-3" d="M49.41,14.26c.12.08.12.28,0,.32-.48.57-1.09-.12-1.73,0-1-.12-2.22,0-3.26-.12.28-.89,1.53-.36,2.21-.52.93.12,2-.16,2.78.32Z"/><path class="cls-3" d="M55.33,14.06a.94.94,0,0,1,.44.52c-1.65.2-3.26-.2-4.83.24a.35.35,0,0,1-.24-.48C51,14,51.54,14.06,52,14l3.3.08Z"/><path class="cls-3" d="M11.18,14.9a.79.79,0,0,1-.24.89.6.6,0,0,1-.73.12c-.24,0-.28-.32-.32-.52-.08-.44.36-.6.6-.93a1,1,0,0,1,.68.44Z"/><path class="cls-3" d="M50.58,15.14c0,.36,0,.89-.44.89a.6.6,0,0,1-.68-.4.89.89,0,0,1,.44-.93c.36,0,.52.24.68.44Z"/><path class="cls-3" d="M35.85,3.82c0,3.14,0,6.36,0,9.51l-.16.08c-1.73.16-3.42-.28-5,.28-.28-.16,0-.64-.12-.93V4.39a.65.65,0,0,1,.44-.6c.44-.32,1-.2,1.61-.28l3.18.08.08.24Z"/><path class="cls-3" d="M37.75,3.74a9.1,9.1,0,0,0,.12,2.1c.48.44,1.85-.2,1.57.89-.44.28-1,.08-1.53.16L37.79,7c-.2,1.61.12,3.26,0,4.71,0,.16.12.44.36.48.44,0,1.13-.28,1.29.28-.08,1-1.33.08-1.65.85-.12.73.2,1.37-.08,2.05l-.2.12c-2.05,0-4.07,0-6-.08-.08,0,0-.16,0-.2l.36-.2c1.61-.16,3.39,0,5.08-.16a.44.44,0,0,0,.4-.48c0-3.06,0-6.24,0-9.67-.08-.48-.56-.77-.64-1.21.28,0,.8-.16,1,.2Z"/><path class="cls-3" d="M24.37,3.58c-.08.36-.4.48-.56.77-.24.64,0,1.29-.08,2,0,2.78,0,5.4,0,8.14a.52.52,0,0,0,.36.48l4.31.08a1.32,1.32,0,0,1,.68.28c-.08.24-.4.16-.61.2-1.61,0-3.34.08-4.91-.12l-.16-.12a5.4,5.4,0,0,0-.28-2.14c-.48-.2-1.09,0-1.61-.16-.24-.12-.16-.44,0-.6.52-.28,1.53.16,1.81-.56,0-1.57.08-3.06,0-4.67-.44-.65-1.37,0-1.77-.65.16-.93,1.45-.12,1.81-.89l.12-1.89c.24-.24.56-.16.85-.12Z"/><path class="cls-3" d="M25,4.15c.12,2.78-.16,5.28,0,8.06-.24.64.28,1.57-.65,1.73-.16-2.78,0-5.76-.12-8.78A1.17,1.17,0,0,1,24.82,4l.16.16Z"/><path class="cls-3" d="M36.94,4.63c0,3.06.08,6.37-.12,9.35-.16,0-.36-.16-.4-.32,0-1.25-.16-2.5-.08-3.83.08-1.73-.12-3.79.08-5.56.2-.12.52.12.52.36Z"/><path class="cls-3" d="M29.57,14.14c.16,0,.36.2.24.4l-.32.28c-1.41-.52-3.18-.16-4.67-.4a2,2,0,0,1,.44-.56,25.73,25.73,0,0,1,4.31.28Z"/><path class="cls-3" d="M36,13.94c.2.12.44.32.44.52l-.2.08a22.78,22.78,0,0,0-5,.2c-.24,0-.52,0-.56-.28.16-.36.64-.48,1-.52,1.45-.12,2.86,0,4.27,0Z"/><path class="cls-3" d="M30.78,15.27c0,.32,0,.73-.4.73s-.73,0-.73-.4a1.24,1.24,0,0,1,.6-.69c.28-.08.44.2.52.36Z"/><path class="cls-3" d="M30,10.19c.16-1.61,0-3.42.08-5,0-.48,0-1-.32-1.37-1.17-.52-2.74-.24-4.07-.32-.08,0-.24,0-.2.12,0,3.18,0,6.16,0,9.3l.08.36a17.84,17.84,0,0,0,2.94.08c.52.08,1,.24,1.53.32a24.63,24.63,0,0,0,0-3l0-.56Z"/><path class="cls-2" d="M29.57,10.07c-.48-.4-.6-1-1-1.49.16-.24.44-.28.65-.48a1.27,1.27,0,0,0,.48-1.25,1.23,1.23,0,0,0-.64-1,6.5,6.5,0,0,0-2.78-.12.21.21,0,0,0-.08.36.73.73,0,0,1,.48.64c0,1.09,0,2.18-.16,3.26l-.44.48c.44.4,1,.08,1.69.2.16-.28-.28-.48-.36-.81.08-.32,0-.77.2-1,.6.52.81,1.37,1.53,1.85l.94.07,0-.51c-.12.08-.36-.12-.48-.16Zm-1.25-2c-.28,0-.72.2-.8-.16,0-.52-.2-1.21,0-1.69a.89.89,0,0,1,1.21.2,1.94,1.94,0,0,1,.16,1c-.16.28-.24.6-.57.68Z"/><path class="cls-3" d="M55.13,4.67A2.14,2.14,0,0,0,55,3.54l-1.45,0c-1,.16-2.22-.16-3.06.36-.4.48-.2,1-.28,1.61l.29,1-.18.43-.62-.11-.16-.35c.07-.25.14-.5.19-.75,0-.69.2-1.73-.68-2-1.33-.12-2.54-.16-3.95-.16a.29.29,0,0,0-.24.12c0,3.1,0,5.76,0,8.82,0,.36-.12.85.28,1,1.17-.16,2.21,0,3.34,0,.44,0,.72.4,1.17.28a34.45,34.45,0,0,0,.08-4.11c0-.11,0-.38-.16-.43V8.94l.69.08.07.23-.08.09-.08,4.15c0,.12,0,.44.28.4,1.25-.73,2.78-.24,4.23-.4l.32-.12a22.37,22.37,0,0,0,.08-3.14c.08-1.81,0-3.63,0-5.56Z"/><path class="cls-2" d="M50.46,9.22a1.13,1.13,0,0,1,.24.8l-.32.45.2.16a5.1,5.1,0,0,0,1.57-.08c-.12-.24-.4-.32-.57-.48-.56-1.48-1-3-1.4-4.57l-.49.22c-.28,1.37-.85,2.62-1.17,4-.08.28-.36.32-.56.48s-.4-.24-.52-.4c0-1.21.12-2.22,0-3.5,0-.2.2-.44.4-.24s.28.56.4.85a.17.17,0,0,0,.32-.08l.2-1.25c-.16-.4-.52,0-.85,0a4.27,4.27,0,0,1-2-.24c-.48.16-.36.85-.44,1.29a.18.18,0,0,0,0,.2c.4-.24.6-.89,1.17-.73l0,1.21-.12,2.62c-.16.2-.56.28-.52.56a13.82,13.82,0,0,0,2.22.08,2.88,2.88,0,0,0,1.17,0,.2.2,0,0,0,0-.28c-.24-.12-.52-.32-.44-.64s.16-.6.52-.48a.15.15,0,0,1,.15.11l.58.07v0c.08-.08.08-.12.2-.12Zm-.84-.56-.2-.08c.12-.44,0-1,.36-1.29.36.24.32.81.48,1.25-.08.2-.44.2-.64.12Z"/><path class="cls-2" d="M54.14,5.92c0,.29.21.82,0,1-.29-.25-.33-.49-.78-.61-.25,0-.49,0-.53.33-.08.86.78.86,1.27,1.44a1.78,1.78,0,0,1,.45,1.77c-.19.46-.41.74-.86.74s-.7-.21-1,0c-.08,0-.25.08-.33,0l0-1.6a.22.22,0,0,1,.21-.12c.25.53.08,1.15.82,1.19.25,0,.45-.07.49-.4C53.93,8.15,52,8.51,52.08,7a2.29,2.29,0,0,1,.25-.9c.33-.54,1.07-.21,1.56-.54.21-.08.21.21.25.33Z"/><path class="cls-2" d="M33.92,5.84c-.4.2-.85.52-.73,1.09a19,19,0,0,0,0,3l.65.56,0,.08a11.4,11.4,0,0,1-2,0c-.28-.32.36-.48.48-.73a17.17,17.17,0,0,0,.12-3.55c-.12-.36-.73-.2-.56-.6a8.49,8.49,0,0,1,2,0l.12.12Z"/><path class="cls-2" d="M14.36,6.6c-.4.48-.48-.44-.89-.48-.24,0-.6-.12-.8.08a3.11,3.11,0,0,0,0,1.49c.16.12.48.08.68.08.24-.16.36-.6.68-.56.2.2-.08.52,0,.73-.08.32.2.68-.16.81-.24-.12-.36-.57-.69-.57l-.56,0a4.44,4.44,0,0,0,0,2.05c.32.32.73,0,1.09,0,.52-.12.4-.85.85-.76a1.83,1.83,0,0,1,.08,1l-.24.16-2.86,0c-.12,0-.4,0-.28-.24.93-.57.4-1.65.52-2.54-.12-.65.36-1.61-.48-2,0-.24.24-.16.32-.24.73,0,1.69.28,2.26-.32.44.24.4.81.44,1.25Z"/><path class="cls-2" d="M10,6c-.81.65-.85,1.77-1.21,2.7-.32.52-.16,1.29-.68,1.73-.2.08-.36-.12-.4-.28A27.59,27.59,0,0,0,6.59,6.44c0-.36-.89-.44-.4-.73.6-.08,1,.08,1.61,0,.12.36-.44.56-.28,1,.36.52.24,1.33.69,1.85l.2-.2c0-.93,1.09-1.77.2-2.58.2-.36.81-.12,1.21-.24.08.08.36.16.16.36Z"/><path class="cls-3" d="M5.06,4.07c.16,3.26,0,6.41,0,9.51a.47.47,0,0,1-.4.36,9.29,9.29,0,0,1-.12-3c-.08-2.05,0-4.35,0-6.4a1,1,0,0,1,.52-.48Z"/></svg>