<svg xmlns="http://www.w3.org/2000/svg" viewBox="0 0 434.9 52.29">
  <style>
    #logo-eye-outer {
      transform-origin: 42.82px 26.14px;
      transition: transform 0.5s ease-in-out;
    }
    svg:hover #logo-eye-outer {
      transform: rotate(180deg);
    }
  </style>
  <g>
    <path d="M100.28,8.46h10.69v13.81h23.5v-13.81h10.69v36.64h-10.69v-14.92h-23.5v14.92h-10.69V8.46Z"/>
    <path d="M151.78,8.46h10.69v36.64h-10.69V8.46Z"/>
    <path d="M169.1,8.46h18.65c17.21,0,23,7.96,23,18.32,0,11.75-5.9,18.32-21.38,18.32h-20.27V8.46h0ZM189.03,37.19c7.91,0,11.02-3.68,11.02-10.41,0-5.79-3.12-10.41-11.75-10.41h-8.52v20.82h9.25Z"/>
    <path d="M216.15,8.46h10.69v36.64h-10.69V8.46Z"/>
    <path d="M231.41,8.46h12.19l14.53,28.06h.06l14.31-28.06h10.91l-19.6,36.64h-12.81l-19.6-36.64h.01Z"/>
    <path d="M287.7,8.46h34.63v7.91h-23.94v7.18h18.37v6.24h-18.37v7.41h24.5v7.91h-35.19V8.47h0Z"/>
  </g>
  <g>
    <path d="M336.97,8.38h4.68v32.41h19.27v4.23h-23.94V8.38h0Z"/>
    <path d="M391.26,36.11h-18.99l-3.62,8.91h-4.9l15.48-36.64h5.57l15.48,36.64h-5.46l-3.56-8.91h0ZM389.86,32.65l-7.96-19.99h-.11l-8.13,19.99h16.2,0Z"/>
    <path d="M406.12,8.38h14.92c8.52,0,12.47,3.73,12.47,9.58,0,4.23-2.12,7.29-6.46,7.85v.06c5.07.45,7.85,3.79,7.85,8.57,0,6.46-3.56,10.58-12.53,10.58h-16.26V8.38h0ZM421.66,24.47c5.18,0,7.52-2.28,7.52-5.9s-2.39-6.07-8.18-6.07h-10.19v11.97h10.86,0ZM422.21,40.89c6.29,0,8.13-2.67,8.13-6.9,0-3.67-3.01-6.07-8.35-6.07h-11.19v12.97h11.41Z"/>
  </g>
  <g>
    <path id="logo-eye-outer" d="M42.82,7.39c-10.35,0-18.75,8.39-18.75,18.75s8.39,18.75,18.75,18.75,18.75-8.39,18.75-18.75S53.18,7.39,42.82,7.39ZM46.12,27.8l5.9,6.01-2.04,2-5.83-5.94v9.71h-2.85v-9.7l-8.45,8.71-2.05-1.99,8.53-8.8h-10.29v-2.85h10.28l-4.39-4.48,2.04-2,4.32,4.41v-12.13h2.85v12.09l6.32-6.51,2.05,1.99-6.44,6.64h11.64v2.85h-11.59Z"/>
    <path d="M37.3,26.38c0-2.99,2.43-5.42,5.42-5.42s5.42,2.43,5.42,5.42-2.43,5.42-5.42,5.42-5.42-2.43-5.42-5.42"/>
    <path d="M42.68,52.29c-9.61,0-19.86-4.28-29.64-12.38C5.74,33.87,1.28,27.88,1.1,27.63l-1.1-1.49,1.1-1.48c.19-.25,4.65-6.23,11.97-12.26C22.9,4.29,33.21,0,42.89,0h.07c9.61,0,19.86,4.28,29.64,12.38,7.3,6.04,11.76,12.03,11.94,12.28l1.1,1.49-1.1,1.48c-.19.25-4.65,6.23-11.97,12.26-9.83,8.11-20.14,12.4-29.82,12.4h-.07ZM6.3,26.14c4.19,5.04,18.97,21.16,36.39,21.16h.06c17.59,0,32.4-16.12,36.6-21.16-4.19-5.04-18.97-21.16-36.39-21.16h-.06C25.31,4.98,10.5,21.1,6.3,26.14Z"/>
  </g>
</svg>
